<?xml version="1.0" encoding="utf-8"?>
<!-- Generator: Adobe Illustrator 27.2.0, SVG Export Plug-In . SVG Version: 6.00 Build 0)  -->
<svg version="1.1" id="Layer_1" xmlns="http://www.w3.org/2000/svg" xmlns:xlink="http://www.w3.org/1999/xlink" x="0px" y="0px"
	 viewBox="0 0 512 512" style="enable-background:new 0 0 512 512;" xml:space="preserve">
<style type="text/css">
	.st0{fill:#212121;}
</style>
<g>
	<path class="st0" d="M377.9,243.81c74.06,0,134.1,60.04,134.1,134.1S451.96,512,377.9,512s-134.1-60.04-134.1-134.1
		S303.85,243.81,377.9,243.81z M377.9,292.55l-2.19,0.2c-4.98,0.9-8.9,4.83-9.8,9.8l-0.2,2.19l-0.01,60.95l-61,0.02l-2.19,0.2
		c-4.98,0.9-8.9,4.82-9.8,9.8l-0.2,2.19l0.2,2.19c0.9,4.98,4.83,8.9,9.8,9.8l2.19,0.2l61.03-0.02l0.01,61.06l0.2,2.19
		c0.9,4.98,4.83,8.9,9.8,9.8l2.19,0.2l2.19-0.2c4.98-0.9,8.9-4.83,9.8-9.8l0.19-2.19l-0.01-61.06l61.05,0.02l2.19-0.2
		c4.98-0.9,8.9-4.83,9.8-9.8l0.2-2.19l-0.2-2.19c-0.9-4.98-4.83-8.9-9.8-9.8l-2.19-0.2l-61.07-0.02l0.01-60.95l-0.2-2.19
		c-0.9-4.98-4.82-8.9-9.8-9.8L377.9,292.55z M244.34,292.57c-15.77,24.63-24.91,53.92-24.91,85.34c0,21.55,4.3,42.09,12.09,60.82
		c-62.27-3.35-97.42-29.78-97.42-79.11v-24.38c0-23.56,19.1-42.67,42.67-42.67L244.34,292.57z M149.36,170.67
		c-2.01,7.79-3.07,15.96-3.07,24.38c0,27.2,11.13,51.8,29.09,69.48l3.95,3.68l-2.57-0.02c-7.35,0-14.42,1.18-21.03,3.36
		c-21.08,6.96-37.54,24.1-43.55,45.6l-0.84,0.02C40.42,317.17,0,290.6,0,237.71v-24.38c0-22.39,17.24-40.74,39.17-42.53l3.5-0.14
		L149.36,170.67z M243.81,121.9c40.4,0,73.14,32.75,73.14,73.14c0,40.4-32.75,73.14-73.14,73.14s-73.14-32.75-73.14-73.14
		C170.67,154.65,203.41,121.9,243.81,121.9z M444.95,170.67c23.56,0,42.67,19.1,42.67,42.67l-0.03,23.46
		c0.48,8.99-0.25,17.24-2.13,24.73c-28.27-26.14-66.05-42.09-107.56-42.09c-14.27,0-28.1,1.89-41.25,5.42
		c3.05-9.36,4.68-19.4,4.68-29.8c0-8.42-1.07-16.59-3.07-24.38L444.95,170.67z M109.71,0c40.4,0,73.14,32.75,73.14,73.14
		c0,40.4-32.75,73.14-73.14,73.14s-73.14-32.75-73.14-73.14C36.57,32.75,69.32,0,109.71,0z M377.9,0c40.4,0,73.14,32.75,73.14,73.14
		c0,40.4-32.75,73.14-73.14,73.14s-73.14-32.75-73.14-73.14C304.76,32.75,337.51,0,377.9,0z"/>
</g>
</svg>
